<svg xmlns="http://www.w3.org/2000/svg" width="1200" height="900" viewBox="0 0 1200 900">
  <defs>
    <linearGradient id="bg" x1="0" y1="0" x2="1" y2="1">
      <stop offset="0" stop-color="#f7fbff"/>
      <stop offset="1" stop-color="#d9e4f4"/>
    </linearGradient>
    <linearGradient id="coat" x1="0" y1="0" x2="0" y2="1">
      <stop offset="0" stop-color="#263d63"/>
      <stop offset="1" stop-color="#162740"/>
    </linearGradient>
    <radialGradient id="shine" cx="0.3" cy="0.2" r="0.9">
      <stop offset="0" stop-color="#ffffff" stop-opacity="0.45"/>
      <stop offset="1" stop-color="#ffffff" stop-opacity="0"/>
    </radialGradient>
    <filter id="shadow" x="-30%" y="-30%" width="160%" height="160%">
      <feDropShadow dx="0" dy="15" stdDeviation="14" flood-color="#1d2c43" flood-opacity="0.35"/>
    </filter>
  </defs>
  <rect width="1200" height="900" fill="url(#bg)"/>
  <ellipse cx="600" cy="760" rx="260" ry="40" fill="#9daec7" opacity="0.45"/>
  <g filter="url(#shadow)">
    <path d="M380 160 L510 130 L600 280 L690 130 L820 160 L890 350 L800 390 L770 700 L430 700 L400 390 L310 350 Z" fill="url(#coat)"/>
    <path d="M510 130 L600 280 L690 130 L640 120 L600 170 L560 120 Z" fill="#eef3fb"/>
    <path d="M560 320 H640 V700 H560 Z" fill="#10203a"/>
    <path d="M445 250 C515 280 515 500 470 700" stroke="#3b547f" stroke-width="7" fill="none" opacity="0.45"/>
    <path d="M755 250 C685 280 685 500 730 700" stroke="#3b547f" stroke-width="7" fill="none" opacity="0.45"/>
    <circle cx="600" cy="390" r="10" fill="#cfb072"/>
    <circle cx="600" cy="450" r="10" fill="#cfb072"/>
    <circle cx="600" cy="510" r="10" fill="#cfb072"/>
    <rect x="430" y="700" width="340" height="18" fill="#101a2d" opacity="0.5"/>
    <ellipse cx="600" cy="260" rx="220" ry="180" fill="url(#shine)"/>
  </g>
</svg>
